<?xml version="1.0" standalone="no"?>
<!DOCTYPE svg PUBLIC "-//W3C//DTD SVG 20010904//EN"
 "http://www.w3.org/TR/2001/REC-SVG-20010904/DTD/svg10.dtd">
<svg version="1.0" xmlns="http://www.w3.org/2000/svg"
 width="500.000000pt" height="500.000000pt" viewBox="0 0 500.000000 500.000000"
 preserveAspectRatio="xMidYMid meet">
<metadata>
Created by potrace 1.14, written by Peter Selinger 2001-2017
</metadata>
<g transform="translate(0.000000,500.000000) scale(0.100000,-0.100000)"
fill="#000000" stroke="none">
<path d="M1826 4168 c-24 -51 -200 -424 -391 -828 -191 -404 -367 -777 -391
-827 l-43 -93 103 0 103 0 141 298 141 297 399 3 398 2 142 -297 142 -298 0
-892 0 -893 95 0 95 0 0 425 0 425 53 0 52 0 329 -425 328 -425 115 0 114 0
-48 63 c-26 34 -173 224 -326 421 -153 197 -276 360 -274 362 2 2 49 9 104 14
255 26 391 106 470 277 33 70 37 88 41 184 5 117 -9 186 -56 272 -48 90 -164
177 -281 213 -65 20 -247 34 -456 34 l-180 0 -415 890 c-376 808 -417 890
-438 890 -19 0 -30 -14 -66 -92z m223 -635 c83 -177 151 -324 151 -327 0 -3
-139 -6 -310 -6 -170 0 -310 2 -310 3 0 2 52 114 116 248 64 134 134 282 155
328 22 46 41 82 43 80 2 -2 71 -149 155 -326z m1190 -1244 c106 -13 138 -27
200 -84 69 -64 94 -133 89 -235 -4 -59 -11 -87 -33 -129 -75 -138 -178 -170
-537 -171 l-198 0 0 315 0 315 198 0 c109 0 235 -5 281 -11z"/>
</g>
</svg>
